<svg width="20" height="20" viewBox="0 0 20 20" fill="none" xmlns="http://www.w3.org/2000/svg">
<path d="M17.9421 12.1083L13.7754 16.275C13.7182 16.3364 13.6492 16.3857 13.5725 16.4198C13.4959 16.454 13.4131 16.4724 13.3292 16.4738C13.2453 16.4753 13.1619 16.4599 13.0841 16.4284C13.0063 16.397 12.9356 16.3502 12.8762 16.2909C12.8169 16.2315 12.7701 16.1608 12.7387 16.083C12.7072 16.0052 12.6918 15.9218 12.6933 15.8379C12.6947 15.754 12.7131 15.6712 12.7473 15.5946C12.7814 15.5179 12.8307 15.4489 12.8921 15.3917L15.9913 12.2917H5.00043C4.83467 12.2917 4.6757 12.2258 4.55849 12.1086C4.44128 11.9914 4.37543 11.8324 4.37543 11.6667C4.37543 11.5009 4.44128 11.3419 4.55849 11.2247C4.6757 11.1075 4.83467 11.0417 5.00043 11.0417H17.5004C17.624 11.0418 17.7447 11.0785 17.8474 11.1472C17.9501 11.2159 18.0301 11.3134 18.0773 11.4276C18.1246 11.5417 18.137 11.6673 18.1129 11.7885C18.0888 11.9096 18.0294 12.0209 17.9421 12.1083ZM15.6254 7.50001C15.6254 7.33425 15.5596 7.17527 15.4424 7.05806C15.3252 6.94085 15.1662 6.87501 15.0004 6.87501H4.00959L7.10876 3.77501C7.17017 3.71779 7.21942 3.64879 7.25358 3.57212C7.28774 3.49545 7.30611 3.41269 7.30759 3.32877C7.30907 3.24486 7.29363 3.1615 7.2622 3.08367C7.23076 3.00585 7.18397 2.93516 7.12463 2.87581C7.06528 2.81646 6.99458 2.76967 6.91676 2.73824C6.83894 2.7068 6.75558 2.69137 6.67166 2.69285C6.58774 2.69433 6.50498 2.7127 6.42831 2.74686C6.35165 2.78102 6.28265 2.83027 6.22543 2.89167L2.05876 7.05834C1.97146 7.14574 1.91203 7.25706 1.88796 7.37823C1.86389 7.49939 1.87626 7.62497 1.92352 7.73911C1.97078 7.85324 2.0508 7.95082 2.15348 8.0195C2.25616 8.08818 2.37689 8.1249 2.50043 8.12501H15.0004C15.1662 8.12501 15.3252 8.05916 15.4424 7.94195C15.5596 7.82474 15.6254 7.66577 15.6254 7.50001Z" fill="#444444"/>
</svg>
